#!OML:ASF F:\VICON\USERDATA\INSTALL\rory3\rory3.ASF
:FULLY-SPECIFIED
:DEGREES
209
root -0.113684 17.3778 8.14192 1.70279 2.88137 2.92197
lowerback 4.8994 -3.45222 -3.44378
upperback -0.0974304 -4.71172 3.41796
thorax -2.27635 -2.29997 5.77734
lowerneck -15.9177 -1.62677 -9.35759
upperneck 24.4114 -0.365308 2.37236
head 10.5077 -0.760541 2.3718
rclavicle 1.61016e-014 1.59028e-015
rhumerus -40.1013 -25.3222 -66.8333
rradius 18.4381
rwrist 23.1632
rhand -13.6989 19.4851
rfingers 7.12502
rthumb 12.4194 -10.126
lclavicle 1.61016e-014 1.59028e-015
lhumerus -28.1943 5.96585 83.4919
lradius 38.8342
lwrist -6.90359
lhand -20.4331 22.487
lfingers 7.12502
lthumb 5.9217 52.3843
rfemur -33.9175 2.43811 17.6431
rtibia 37.0525
rfoot -3.55599 -4.30341
rtoes -5.16563
lfemur 16.5073 -6.83217 -25.8186
ltibia 24.3962
lfoot 7.17976 -4.88896
ltoes -21.6399
210
root -0.143942 17.4185 8.37306 1.3041 3.35747 2.65333
lowerback 5.0178 -3.64491 -3.39954
upperback 0.089482 -4.96622 3.59218
thorax -2.10577 -2.43669 5.94714
lowerneck -16.0032 -1.53427 -9.50973
upperneck 24.4425 -0.210592 2.47749
head 10.5256 -0.691772 2.45682
rclavicle 4.36332e-014 -3.02153e-014
rhumerus -40.0126 -24.9953 -67.0926
rradius 18.8544
rwrist 22.2765
rhand -13.6061 19.1243
rfingers 7.12502
rthumb 12.5089 -10.4813
lclavicle 4.36332e-014 -3.02153e-014
lhumerus -28.6124 6.40826 83.7644
lradius 38.8842
lwrist -6.73231
lhand -17.5998 26.3948
lfingers 7.12502
lthumb 8.65658 56.1973
rfemur -32.7359 2.44045 18.1124
rtibia 37.439
rfoot -3.96662 -4.86009
rtoes -2.64929
lfemur 15.5087 -7.10309 -25.2863
ltibia 27.1162
lfoot 9.62362 -5.78677
ltoes -21.5714
211
root -0.166639 17.4529 8.59094 1.12884 3.85626 2.65705
lowerback 5.1019 -3.84746 -3.52129
upperback 0.0951055 -5.24373 3.68381
thorax -2.09243 -2.57521 6.13151
lowerneck -15.7727 -1.38344 -9.7586
upperneck 24.4109 -0.00736821 2.67061
head 10.4552 -0.59812 2.59425
rclavicle -4.34344e-014 9.54166e-015
rhumerus -40.0734 -24.4587 -67.4376
rradius 19.4142
rwrist 21.2195
rhand -13.5292 18.8145
rfingers 7.12502
rthumb 12.5831 -10.7865
lclavicle -4.34344e-014 9.54166e-015
lhumerus -29.1817 6.76067 84.0674
lradius 38.7919
lwrist -6.72065
lhand -18.4902 24.9523
lfingers 7.12502
lthumb 7.79722 54.7885
rfemur -31.7991 2.24903 18.273
rtibia 37.7013
rfoot -4.47874 -5.37057
rtoes -1.68127
lfemur 14.1853 -7.48718 -25.1178
ltibia 29.9397
lfoot 12.359 -6.69547
ltoes -19.7454
212
root -0.182163 17.4857 8.79685 1.14139 3.92589 2.64808
lowerback 5.05339 -3.85648 -3.50016
upperback 0.00673515 -5.25257 3.69919
thorax -2.1562 -2.57595 6.13681
lowerneck -15.3231 -1.30533 -9.8553
upperneck 24.4189 0.0647389 2.71432
head 10.3665 -0.570205 2.63407
rclavicle -2.65378e-014 -1.43125e-014
rhumerus -40.2543 -24.1446 -67.6963
rradius 19.8759
rwrist 20.1639
rhand -13.5377 18.079
rfingers 7.12502
rthumb 12.5749 -11.5226
lclavicle -2.65378e-014 -1.43125e-014
lhumerus -29.8103 6.90202 84.3352
lradius 38.6694
lwrist -6.98477
lhand -18.3367 25.0149
lfingers 7.12502
lthumb 7.9454 54.8456
rfemur -31.0808 2.21556 18.4668
rtibia 37.723
rfoot -5.08778 -5.39777
rtoes -1.92348
lfemur 12.4953 -7.57444 -25.0293
ltibia 32.8489
lfoot 15.2644 -7.19454
ltoes -15.4533
213
root -0.199871 17.5138 8.98158 1.2809 3.21472 2.48716
lowerback 5.15532 -3.57991 -3.40487
upperback -0.050946 -4.87782 3.73485
thorax -2.32649 -2.38253 6.11402
lowerneck -15.3964 -1.36558 -9.63057
upperneck 24.4393 -0.00858222 2.47503
head 10.3942 -0.611995 2.50136
rclavicle -5.45664e-014 -4.13472e-014
rhumerus -40.1367 -24.2231 -67.8714
rradius 20.0348
rwrist 19.5512
rhand -13.2615 17.3886
rfingers 7.12502
rthumb 12.8411 -12.1964
lclavicle -5.45664e-014 -4.13472e-014
lhumerus -30.321 6.95766 84.6362
lradius 38.6992
lwrist -6.92154
lhand -18.5461 25.388
lfingers 7.12502
lthumb 7.74324 55.2262
rfemur -30.5929 2.84644 18.8409
rtibia 37.5507
rfoot -5.46311 -5.21386
rtoes -1.88384
lfemur 10.426 -7.05563 -24.8293
ltibia 35.9108
lfoot 17.9375 -7.22625
ltoes -11.3706
214
root -0.243894 17.5614 9.19528 1.09399 3.70597 1.90385
lowerback 5.26255 -3.67457 -3.09173
upperback 0.0121476 -4.9833 3.89322
thorax -2.3199 -2.43987 6.11454
lowerneck -15.3077 -1.44141 -9.58145
upperneck 24.2836 -0.158236 2.54456
head 10.3294 -0.66326 2.49567
rclavicle -7.40473e-014 2.22639e-014
rhumerus -39.9843 -24.5644 -67.951
rradius 19.8845
rwrist 19.2828
rhand -13.3107 16.8596
rfingers 7.12502
rthumb 12.7937 -12.7283
lclavicle -7.40473e-014 2.22639e-014
lhumerus -30.6405 6.55087 85.008
lradius 38.5198
lwrist -6.07091
lhand -18.6486 25.9195
lfingers 7.12502
lthumb 7.64436 55.7614
rfemur -29.2633 3.44919 19.6456
rtibia 37.1719
rfoot -5.96558 -6.37765
rtoes -0.127555
lfemur 8.76094 -7.35437 -23.8412
ltibia 38.8842
lfoot 19.9386 -7.74723
ltoes -8.23398
215
root -0.261252 17.6011 9.39366 1.13469 3.19938 1.35413
lowerback 5.16016 -3.4753 -2.54649
upperback -0.0491545 -4.6784 4.01227
thorax -2.39813 -2.28924 5.91065
lowerneck -14.753 -1.44568 -9.75182
upperneck 24.084 -0.221511 2.68628
head 10.155 -0.686925 2.56192
rclavicle -6.26172e-015 -3.18055e-015
rhumerus -39.92 -24.0812 -68.3733
rradius 20.0319
rwrist 18.4517
rhand -13.4101 15.6035
rfingers 7.12502
rthumb 12.6978 -13.9905
lclavicle -6.26172e-015 -3.18055e-015
lhumerus -31.0572 6.36884 85.3099
lradius 38.0945
lwrist -5.97229
lhand -17.9864 25.7468
lfingers 7.12502
lthumb 8.28342 55.5644
rfemur -28.4077 4.08052 20.4293
rtibia 36.736
rfoot -6.30087 -6.65632
rtoes 0.523872
lfemur 6.81823 -6.87436 -23.1359
ltibia 41.7124
lfoot 21.5207 -7.9343
ltoes -5.55449
216
root -0.283064 17.6433 9.5988 0.994937 3.20935 0.859329
lowerback 5.13089 -3.40972 -2.05838
upperback 0.0164397 -4.56002 4.08204
thorax -2.36018 -2.23706 5.69634
lowerneck -14.7609 -1.49389 -9.84352
upperneck 24.232 -0.3227 2.91396
head 10.2161 -0.719421 2.64819
rclavicle 6.95746e-015 -2.22639e-014
rhumerus -39.7425 -23.1646 -69.2456
rradius 20.6283
rwrist 17.1225
rhand -13.8421 14.7771
rfingers 7.12502
rthumb 12.2814 -14.8422
lclavicle 6.95746e-015 -2.22639e-014
lhumerus -31.3475 6.11316 85.556
lradius 37.8105
lwrist -6.71411
lhand -17.4462 25.2731
lfingers 7.12502
lthumb 8.80479 55.0694
rfemur -27.2124 4.26797 21.1952
rtibia 36.3043
rfoot -6.83545 -6.86663
rtoes 1.43016
lfemur 5.21429 -6.71291 -22.3827
ltibia 44.2624
lfoot 23.0632 -8.16464
ltoes -5.17096
217
root -0.297423 17.6783 9.79358 0.936504 2.96008 0.702287
lowerback 5.17345 -3.27122 -1.90412
upperback 0.140369 -4.36779 4.09158
thorax -2.28801 -2.1461 5.60572
lowerneck -15.2393 -1.58507 -9.82937
upperneck 24.4485 -0.421409 3.00269
head 10.3936 -0.75728 2.66983
rclavicle 2.99171e-014 -1.27222e-014
rhumerus -39.3376 -22.5695 -69.9419
rradius 21.1088
rwrist 16.316
rhand -14.6504 15.5811
rfingers 7.12502
rthumb 11.5019 -14.0833
lclavicle 2.99171e-014 -1.27222e-014
lhumerus -31.3488 6.0152 85.8579
lradius 37.4042
lwrist -7.42801
lhand -18.3652 23.7001
lfingers 7.12502
lthumb 7.91784 53.5318
rfemur -26.2509 4.46291 21.5636
rtibia 35.9573
rfoot -7.07663 -6.96564
rtoes 2.31664
lfemur 3.64816 -6.27679 -22.0781
ltibia 46.6218
lfoot 23.6206 -8.05148
ltoes -4.99718
